<?xml version="1.0" standalone="no"?>
<!DOCTYPE svg PUBLIC "-//W3C//DTD SVG 20010904//EN"
 "http://www.w3.org/TR/2001/REC-SVG-20010904/DTD/svg10.dtd">
<svg version="1.0" xmlns="http://www.w3.org/2000/svg"
 width="500.000000pt" height="500.000000pt" viewBox="0 0 500.000000 500.000000"
 preserveAspectRatio="xMidYMid meet">

<g transform="translate(0.000000,500.000000) scale(0.100000,-0.100000)"
fill="#000000" stroke="none">
<path d="M2355 3856 c-82 -27 -152 -71 -220 -139 -67 -67 -73 -70 -150 -89
-116 -27 -298 -88 -311 -104 -6 -7 -18 -58 -27 -112 -72 -434 -34 -829 108
-1107 137 -267 360 -460 673 -580 l72 -28 73 28 c653 251 918 823 780 1683 -9
56 -21 108 -27 116 -13 16 -194 77 -311 104 -77 19 -83 22 -152 91 -53 53 -91
81 -149 108 -76 37 -83 38 -199 40 -79 2 -134 -2 -160 -11z m290 -86 c66 -23
152 -83 186 -131 l23 -32 -30 7 c-16 4 -37 15 -47 23 -9 9 -49 32 -88 52 -45
23 -77 47 -90 69 -12 17 -19 32 -17 32 3 0 31 -9 63 -20z m-277 -30 c-6 -24
-20 -46 -37 -56 -14 -10 -51 -41 -81 -69 -50 -48 -123 -85 -137 -71 -11 10 64
112 109 149 33 27 138 86 154 87 1 0 -3 -18 -8 -40z m333 -71 c32 -17 64 -39
72 -48 8 -9 17 -48 20 -87 l6 -70 -57 -31 -57 -32 -55 35 c-30 19 -61 39 -68
43 -7 4 -16 32 -21 62 -5 29 -12 66 -16 80 -6 24 -2 30 37 52 57 33 70 33 139
-4z m-199 -27 c5 -5 15 -40 21 -77 l12 -68 -35 -29 c-19 -16 -49 -41 -66 -54
l-31 -24 -74 17 c-41 9 -79 21 -85 25 -17 13 -27 113 -14 137 6 11 38 43 71
70 l61 49 66 -19 c36 -10 70 -23 74 -27z m613 -151 c55 -17 106 -35 112 -39
45 -29 67 -593 30 -774 -50 -248 -147 -436 -310 -600 -95 -96 -181 -157 -301
-214 -130 -61 -146 -63 -242 -23 -318 131 -550 401 -639 744 -36 139 -48 277
-42 470 4 141 30 381 42 393 6 7 177 62 212 68 34 6 36 6 29 -17 -15 -56 -18
-171 -7 -231 31 -156 140 -296 288 -366 l78 -37 135 0 135 0 78 37 c148 70
257 210 288 366 11 60 9 156 -7 230 -5 25 -3 31 7 28 8 -3 59 -19 114 -35z
m-266 -82 c33 -40 33 -41 22 -97 -16 -82 -40 -124 -86 -149 -22 -13 -45 -23
-52 -23 -6 0 -28 20 -48 44 l-36 44 20 78 c11 43 26 81 33 86 7 4 31 18 53 32
22 13 45 24 50 25 6 0 25 -18 44 -40z m81 -38 c0 -69 -22 -150 -58 -211 -27
-45 -27 -45 -30 -16 -2 15 6 51 18 78 12 28 24 76 27 107 10 113 43 146 43 42z
m-577 15 c37 -10 41 -16 68 -86 16 -41 29 -82 29 -90 0 -9 -20 -38 -44 -65
l-43 -50 -69 20 c-61 18 -71 24 -91 60 -12 22 -27 61 -34 87 -11 47 -10 49 26
99 37 49 38 50 78 43 23 -3 59 -12 80 -18z m-240 -44 c16 -17 33 -53 43 -88 8
-32 24 -74 35 -92 20 -35 26 -92 9 -92 -16 0 -78 91 -99 147 -24 60 -38 153
-24 153 5 0 21 -13 36 -28z m562 -168 l38 -46 -17 -32 c-35 -64 -52 -76 -118
-87 -96 -16 -138 -6 -171 41 l-27 38 50 61 51 60 72 4 c40 1 75 4 78 5 4 1 24
-19 44 -44z m30 -173 c-3 -5 -31 -20 -63 -32 -62 -23 -196 -30 -242 -11 l-25
10 28 11 c16 6 63 12 105 12 42 1 91 5 107 9 44 11 97 12 90 1z"/>
<path d="M1030 1459 l0 -131 74 4 c55 2 80 8 95 22 26 23 28 72 4 98 -13 14
-14 21 -5 30 7 7 12 27 12 44 0 48 -29 64 -112 64 l-68 0 0 -131z m128 59 c3
-24 -1 -28 -32 -33 -42 -8 -56 -1 -56 29 0 31 9 37 50 34 30 -3 35 -7 38 -30z
m10 -110 c3 -22 -2 -29 -21 -33 -49 -13 -72 -3 -75 33 l-3 33 48 -3 c44 -3 48
-5 51 -30z"/>
<path d="M1310 1460 l0 -130 25 0 c23 0 25 3 25 50 0 45 2 50 23 50 16 0 29
-13 50 -50 22 -39 34 -50 53 -50 l24 0 -26 51 -25 51 20 22 c31 33 28 89 -5
115 -21 17 -41 21 -95 21 l-69 0 0 -130z m124 84 c19 -7 21 -45 4 -62 -7 -7
-27 -12 -45 -12 -32 0 -33 1 -33 40 0 38 2 40 29 40 16 0 36 -3 45 -6z"/>
<path d="M1624 1493 c-20 -54 -43 -113 -50 -130 -12 -32 -12 -33 10 -33 17 0
27 9 36 30 12 28 16 30 69 30 54 0 57 -2 68 -30 8 -20 18 -30 32 -30 12 0 21
3 21 8 0 4 -21 62 -46 130 -44 116 -48 122 -75 122 -26 0 -30 -7 -65 -97z m89
-15 l16 -48 -41 0 c-30 0 -39 3 -35 14 3 8 11 33 18 55 14 48 20 45 42 -21z"/>
<path d="M1901 1564 c-37 -47 -22 -86 44 -115 56 -25 72 -44 54 -65 -13 -16
-64 -16 -101 0 -15 7 -18 3 -18 -17 0 -28 20 -37 88 -37 32 0 49 6 67 25 48
47 28 96 -52 131 -40 18 -53 29 -51 42 3 14 14 17 56 17 48 -1 53 1 50 20 -3
17 -11 20 -59 23 -51 3 -59 0 -78 -24z"/>
<path d="M2140 1460 l0 -130 25 0 25 0 0 130 0 130 -25 0 -25 0 0 -130z"/>
<path d="M2280 1460 l0 -130 80 0 c73 0 80 2 80 20 0 18 -7 20 -55 20 l-55 0
0 110 0 110 -25 0 -25 0 0 -130z"/>
<path d="M2520 1460 l0 -130 85 0 c78 0 85 2 85 20 0 18 -7 20 -60 20 l-60 0
0 35 0 35 55 0 c48 0 55 2 55 20 0 18 -7 20 -55 20 l-55 0 0 35 0 35 60 0 c53
0 60 2 60 20 0 18 -7 20 -85 20 l-85 0 0 -130z"/>
<path d="M2780 1460 l0 -130 25 0 25 0 0 130 0 130 -25 0 -25 0 0 -130z"/>
<path d="M2920 1460 l0 -130 25 0 c23 0 25 3 25 50 0 45 2 50 23 50 16 0 29
-13 50 -50 22 -39 34 -50 53 -50 l24 0 -26 51 -25 51 20 22 c31 33 28 89 -5
115 -21 17 -41 21 -95 21 l-69 0 0 -130z m124 84 c19 -7 21 -45 4 -62 -7 -7
-27 -12 -45 -12 -32 0 -33 1 -33 40 0 38 2 40 29 40 16 0 36 -3 45 -6z"/>
<path d="M3249 1575 c-71 -39 -70 -193 2 -230 36 -19 102 -19 139 0 56 29 75
138 34 200 -29 44 -120 60 -175 30z m118 -40 c50 -35 34 -147 -22 -161 -44
-11 -75 4 -91 42 -37 89 40 170 113 119z"/>
<path d="M3540 1460 l0 -130 75 0 c68 0 75 2 75 19 0 17 -8 20 -52 23 l-53 3
-3 108 c-2 99 -4 107 -22 107 -19 0 -20 -7 -20 -130z"/>
<path d="M3801 1473 c-24 -65 -46 -124 -48 -130 -3 -8 4 -13 20 -13 20 0 27 6
32 30 6 29 8 30 66 30 58 0 60 -1 70 -30 8 -22 17 -30 35 -30 13 0 24 1 24 3
0 1 -22 58 -48 127 -46 118 -50 125 -78 128 -29 3 -30 1 -73 -115z m106 -39
c-3 -3 -21 -4 -40 -2 l-35 3 21 55 20 54 20 -52 c11 -29 17 -55 14 -58z"/>
</g>
</svg>
